<svg xmlns="http://www.w3.org/2000/svg" xmlns:xlink="http://www.w3.org/1999/xlink" width="188" height="188.0001220703125" viewBox="0 0 188 188.0001220703125" fill="none">
<path d="M187.4 187.896C126.44 187.896 65.4788 187.853 4.51943 188C0.770579 188.009 -0.0093352 187.229 8.40799e-05 183.481C0.14514 122.521 0.103696 61.5592 0.103696 0.599395C1.72381 -0.336883 3.50026 0.103939 5.1995 0.102056C64.1488 0.0775654 123.1 0.0794493 182.049 0.083217C187.908 0.083217 187.918 0.0926363 187.918 5.95143C187.919 64.9012 187.923 123.853 187.899 182.802C187.897 184.502 188.336 186.276 187.4 187.896Z"   fill="#6C63FE" >
</path>
<path d="M147.648 118.129C137.283 124.949 136.736 124.767 133.068 113.387C132.527 111.709 131.908 110.055 130.895 107.162C129.896 111.916 128.664 115.437 128.527 119C128.344 123.787 126.016 125.207 121.766 124.84C120.793 125.269 119.908 125.922 118.93 126.277C111.197 129.074 107.109 126.443 105.475 117.726C105.072 110.635 107.178 105.045 113.545 100.816C120.588 96.1405 124.092 88.8983 125.432 80.5233C126.035 76.7499 124.879 75.2636 121.102 75.0058C114.482 74.5526 114.492 74.412 110.707 70.496C109.617 73.8847 107.096 74.3847 104.148 73.7694C99.6934 72.8378 98.3867 69.3729 97.3242 64.4394C96.9082 68.1874 96.9141 71.1288 94.6055 73.1151C92.0605 75.3026 88.916 74.9882 85.8828 75.0253C81.9375 75.0722 77.9824 75.1874 74.0469 75.0058C69.875 74.8144 68.5098 76.8378 69.0996 80.5995C70.2148 87.6933 72.957 93.9745 78.3574 98.9433C83.8984 104.043 84.3555 105.771 80.5996 112.369C78.2363 116.521 76.9238 121.945 70.9258 122.859C69.4961 122.721 68.0625 122.625 66.6406 122.433C54.752 120.84 52.8008 118.683 52.7891 106.767C52.7773 94.9472 51.1289 83.1835 52.6523 71.2948C55.5547 48.6718 73.5234 31.6504 96.2324 31.332C108.428 31.1601 117.623 37.5488 125.174 46.6464C130.859 53.496 134.025 61.7792 138.295 69.4374C138.621 69.8261 139.154 70.0683 139.17 70.6757C140.02 73.83 141.609 76.621 143.396 79.3163C146.619 81.4296 147.994 84.3729 147.393 88.205C149.893 95.0722 152.525 101.908 152.209 109.416C154.588 114.357 151.434 116.408 147.648 118.129ZM137.98 150.519C144.045 161.353 143.771 162.244 132.762 167.617C95.7246 185.691 47.6641 171.332 26.5781 136.019C24.9394 133.275 25.0664 132.074 27.7578 130.117C36.7539 123.572 46.4727 122.514 56.9004 125.291C60.1895 126.166 63.4375 127.197 66.7031 128.156C69.3301 127.805 71.6094 128.703 73.7852 130.066C76.3652 131.684 79.1973 132.916 81.668 134.666C90.9395 141.232 100.689 140.988 110.789 137.086C114.145 135.422 117.129 135.73 119.613 138.725C125.043 141.916 130.475 145.107 135.904 148.299C136.883 148.773 137.357 149.717 137.98 150.519Z"   fill="#2F2E41" >
</path>
<path d="M111.268 138.75C103 143.062 94.4123 143.541 86.1251 139.465C79.4239 136.17 72.7501 132.656 66.7032 128.154C68.1114 126.389 69.5176 124.623 70.9239 122.857C72.752 120.432 74.7735 118.121 76.3594 115.545C78.2305 112.504 80.4864 109.389 81.1895 106.018C82.0313 101.982 77.088 101.459 75.045 99.0371C69.4669 92.4219 66.4747 85.1113 66.711 76.4004C66.7872 73.6133 67.5977 72.6348 70.4532 72.75C77.0899 73.0176 83.7462 72.8379 90.381 73.1426C93.4259 73.2832 94.5255 72.1562 94.7814 69.2695C95.1134 65.5391 95.7931 61.8379 96.4005 57.5801C99.4005 60.2949 99.3986 63.8711 99.9435 66.8711C100.703 71.0508 102.561 72.8164 106.676 72.2656C111.391 71.6367 108.012 67.9355 109.037 65.8926C109.258 65.4531 109.121 64.834 109.151 64.2773C109.494 64.334 110.067 64.3242 110.096 64.4453C111.897 71.8848 116.824 74.1328 123.938 72.9375C127.217 72.3867 127.858 74.4219 127.838 77.1016C127.766 87.2227 124.479 96.3867 115.885 101.686C109.395 105.689 107.397 110.639 107.324 117.387C105.801 122.883 109.721 127.111 110.738 132.016C111.205 134.248 112.393 136.404 111.268 138.75Z"   fill="#FEFEFE" >
</path>
<path d="M111.268 138.75C107.572 132.055 105.945 124.98 107.33 117.369C107.508 124.598 107.508 124.584 114.863 124.641C117.164 124.658 119.465 124.771 121.764 124.84C120.361 129.361 119.646 133.99 119.613 138.723C116.832 138.191 114.047 137.674 111.268 138.75Z"   fill="#6A62F9" >
</path>
<path d="M147.393 88.2032L143.396 79.3145C150.58 76.1915 157.83 73.461 166.363 75.5762C163.027 80.9942 158.162 83.8965 152.525 85.6622C150.643 86.252 148.723 86.5762 147.393 88.2032Z"   fill="#564FCB" >
</path>
<path d="M147.648 118.129C149.818 115.562 151.543 112.766 152.207 109.412C158.994 107.449 164.867 111.342 163.676 117.01C162.438 122.893 155.891 125.033 151.24 121.066C150.064 120.062 149.553 118.246 147.648 118.129Z"   fill="#564FCC" >
</path>
<path d="M166.004 51.5157C165.955 55.9825 162.994 58.9356 158.512 58.7833C154.176 58.6368 152.062 56.1641 151.965 51.9239C151.859 47.2911 154.65 44.6114 159.32 44.7637C163.436 44.9005 166.047 47.5391 166.004 51.5157Z"   fill="#564FCB" >
</path>
<path d="M164.432 134.846C159.119 141.98 152.547 143.879 144.717 142.725C147.453 136.789 154.812 133.725 164.432 134.846Z"   fill="#564FCD" >
</path>
<path d="M137.98 150.52L135.906 148.299C138.461 141.508 139.508 134.094 144.258 128.209C145.432 126.754 146.129 124.703 149.301 125.064C142.68 132.566 138.77 140.893 137.98 150.52Z"   fill="#5B53D6" >
</path>
<path d="M139.17 70.6738C138.879 70.2617 138.586 69.8496 138.295 69.4355C141.727 65.7344 145.16 62.0332 148.592 58.332L149.57 59.2168C146.105 63.0371 142.639 66.8555 139.17 70.6738Z"   fill="#5952D1" >
</path>
</svg>
