<svg t="1710835843669" class="icon" viewBox="0 0 1024 1024" version="1.1" xmlns="http://www.w3.org/2000/svg" p-id="3848" width="200" height="200"><path d="M954.432 967.264h-215.296C898.816 882.24 1008 710.272 1008 512c0-282.784-222.08-512-496-512C238.08 0 16 229.216 16 512c0 276.096 211.712 501.12 476.704 511.616 1.408 0.224 2.88 0.384 4.352 0.384h457.376a28.288 28.288 0 0 0 28.032-28.352 28.288 28.288 0 0 0-28.032-28.384z m-185.952-558.784c56.48 0 102.272 46.336 102.272 103.52s-45.76 103.52-102.272 103.52c-56.48 0-102.272-46.336-102.272-103.52s45.76-103.52 102.272-103.52zM512 158.624c56.48 0 102.272 46.336 102.272 103.52s-45.76 103.52-102.272 103.52c-56.48 0-102.272-46.336-102.272-103.52s45.76-103.52 102.272-103.52zM260.16 613.888c-56.48 0-102.272-46.368-102.272-103.552 0-57.184 45.792-103.52 102.304-103.52 56.48 0 102.272 46.336 102.272 103.52s-45.792 103.552-102.272 103.552z m147.84 171.52c0-57.184 45.76-103.552 102.272-103.552 56.48 0 102.304 46.4 102.304 103.552 0 57.184-45.824 103.52-102.304 103.52-56.48 0-102.272-46.336-102.272-103.52z"  p-id="3849"></path></svg>