<svg t="1711117237015" class="icon" viewBox="0 0 1024 1024" version="1.1" xmlns="http://www.w3.org/2000/svg" p-id="2025" width="200" height="200"><path d="M16 16m128 0l736 0q128 0 128 128l0 736q0 128-128 128l-736 0q-128 0-128-128l0-736q0-128 128-128Z" fill="#FFFFFF" p-id="2026"></path><path d="M439.52 538.016h44.384v209.888c-26.048 0.096-52.096 0-78.144 0.032-8.384-0.192-16.896 0.64-25.12-1.056a76.8 76.8 0 0 1-43.584-25.568 68.16 68.16 0 0 1-15.392-32.16 98.08 98.08 0 0 1 0.128-36.544c4.256-13.28 11.936-25.792 22.88-35.552a82.912 82.912 0 0 1 32.832-17.824c4.96-1.376 10.08-2.56 15.328-2.528h46.688v-58.688m-49.344 95.136c-8.96 3.712-17.344 9.6-21.632 17.792a63.36 63.36 0 0 0-4.608 22.528c-0.064 9.28 3.04 18.688 8.96 26.336 6.88 8.96 18.88 14.72 31.072 14.24h35.648v-83.392l-39.904-0.032c-3.392-0.064-6.464 1.376-9.536 2.528z m117.696-33.312h44.256v97.728c0.032 4.096 1.344 8.384 4.48 11.52 3.424 3.392 8.64 4.96 13.664 4.96h46.752v-114.144c14.752-0.16 29.536-0.064 44.32-0.064v148.096c-35.84 0.096-71.616 0.032-107.424 0.032-11.36-0.896-22.752-4.576-31.36-11.488a38.496 38.496 0 0 1-14.72-31.232l0.032-105.408z" fill="#FCFBFF" p-id="2027"></path><path d="M421.056 160.704c13.92-2.304 28.48 1.248 40.192 8.672 18.24 11.52 30.304 30.272 37.216 49.856 10.592 30.688 9.984 64.96-2.144 95.168-6.08 14.816-15.232 28.8-28 39.136-10.336 8.416-23.424 14.08-37.12 14.4a60.736 60.736 0 0 1-37.44-12.32c-17.024-12.64-28.128-31.328-34.336-50.816a136.64 136.64 0 0 1 2.848-89.6c6.72-16.992 17.472-33.056 32.96-43.84a62.72 62.72 0 0 1 25.824-10.656z m203.872 15.2c9.792-2.016 19.84 0.576 28.672 4.672 12.512 5.824 23.136 14.912 31.744 25.312 11.968 14.72 20.288 32.32 22.816 50.88 1.92 12.896-0.224 25.984-4 38.4a141.44 141.44 0 0 1-20.64 42.24 97.12 97.12 0 0 1-30.624 28.096c-11.424 6.4-24.8 9.696-38.016 8.832-16.16-1.024-32.544-6.368-44.48-17.184-12-10.72-18.816-25.792-21.952-41.056A153.152 153.152 0 0 1 547.2 266.88c2.208-14.496 8.544-28.064 16.288-40.576 8.16-12.928 18.176-24.864 30.208-34.656 9.056-7.296 19.52-13.44 31.232-15.744zM258.656 315.04c14.784-2.624 30.336 0.384 43.424 7.36 19.328 10.24 34.304 27.104 43.936 45.984 3.904 7.84 6.912 16.192 7.712 24.896 2.432 21.76 1.92 44.192-4.576 65.344-4.416 14.336-12.256 28-24.064 37.952-14.624 12.448-34.336 18.496-53.664 18.752a68.16 68.16 0 0 1-44.352-15.744c-16.032-13.376-26.016-32.384-31.264-51.904-3.424-13.28-5.024-27.2-2.752-40.768 3.296-22.688 10.24-45.44 23.808-64.48 9.728-13.664 24.512-24.64 41.792-27.392z m475.744 50.112c17.6-2.112 36.224 0.192 51.904 8.512 14.496 7.552 25.888 19.904 33.504 33.856 6.304 11.648 10.656 24.384 11.84 37.504 0.608 18.72 0.928 37.696-3.2 56.096-2.848 12.896-7.84 25.6-16.48 35.968-8.16 9.92-19.84 17.024-32.512 20.256-12.768 3.392-26.176 3.488-39.264 2.432-15.584-1.408-31.392-5.632-43.84-15.104A64.96 64.96 0 0 1 674.144 512c-5.44-16.96-5.952-34.88-5.632-52.48 0.544-18.368 3.232-37.056 10.912-54.08 5.728-12.704 14.944-24.288 27.456-31.424 8.32-4.928 17.888-7.68 27.552-8.864z m-236.608 67.808a99.744 99.744 0 0 1 52.288 8.32c25.12 11.36 44.576 31.68 59.392 53.824 18.464 25.6 40.096 48.96 62.784 71.168 21.6 20.864 44.16 40.832 67.776 59.584 3.936 3.2 8.16 6.144 11.744 9.728 17.856 17.568 28.8 41.216 31.136 65.6 2.56 25.824-3.904 51.776-14.784 75.264-8.192 17.28-22.272 31.872-39.68 40.8-24.096 12.544-52.16 15.52-79.168 14.592a308.992 308.992 0 0 1-77.376-13.28 257.312 257.312 0 0 0-93.824-6.56c-14.592 1.536-28.768 5.44-43.264 7.616-32.64 5.152-65.92 6.88-98.944 4.8a97.632 97.632 0 0 1-70.976-34.624 123.296 123.296 0 0 1-22.816-42.624c-4.576-14.304-7.36-29.28-6.592-44.288a111.264 111.264 0 0 1 15.136-50.56c13.28-23.264 33.376-42.144 55.104-58.112 6.208-4.768 13.12-8.768 18.4-14.528 10.24-9.152 21.024-17.664 31.104-26.976 18.976-17.28 36.48-36.16 50.816-57.184 4.128-5.952 7.584-12.288 12.16-17.92 19.136-24 48.096-41.28 79.584-44.64m-56.672 107.264v64.256H393.28a54.272 54.272 0 0 0-15.68 2.72 83.488 83.488 0 0 0-33.664 19.52c-11.2 10.688-19.072 24.384-23.456 38.912a114.56 114.56 0 0 0-0.128 40c2.432 12.64 7.328 25.12 15.776 35.2 11.104 13.696 26.784 24.48 44.64 27.968 8.448 1.92 17.184 0.96 25.76 1.184 26.688 0 53.376 0.064 80.064-0.032v-229.76h-45.472m70.048 67.68v115.36c-0.576 12.8 5.12 25.664 15.04 34.208 8.8 7.552 20.48 11.584 32.128 12.576 36.672 0 73.376 0.064 110.08 0v-162.112c-15.136 0-30.272-0.128-45.44 0.032 0.064 41.632 0.064 83.296 0.032 124.928h-47.936a19.2 19.2 0 0 1-13.984-5.44 18.336 18.336 0 0 1-4.544-12.576l-0.032-106.976h-45.344z" fill="#306CFF" p-id="2028"></path><path d="M392.256 666.56c3.456-1.152 6.944-2.624 10.752-2.56 14.976 0.064 29.984 0 44.96 0.032v83.936h-40.16c-13.76 0.48-27.264-5.344-35.072-14.336a40.416 40.416 0 0 1-10.08-26.496 57.92 57.92 0 0 1 5.216-22.656c4.8-8.256 14.272-14.208 24.384-17.92z" fill="#306CFF" p-id="2029"></path></svg>