<svg t="1713708410803" class="icon" viewBox="0 0 1024 1024" version="1.1" xmlns="http://www.w3.org/2000/svg" p-id="6263" width="200" height="200"><path d="M768 896H256c-71.68 0-128-58.88-128-128V256c0-71.68 58.88-128 128-128h512c71.68 0 128 58.88 128 128v512c0 71.68-56.32 128-128 128z" fill="#FD6F67" p-id="6264"></path><path d="M509.44 563.2h222.72c23.04 0 35.84-12.8 35.84-35.84v-56.32c0-2.56-2.56-5.12-5.12-5.12-17.92 0-30.72-12.8-30.72-30.72s12.8-30.72 30.72-30.72c2.56 0 5.12-2.56 5.12-5.12v-56.32c0-23.04-12.8-35.84-35.84-35.84H422.4c-23.04 0-35.84 12.8-35.84 35.84v56.32c0 2.56 2.56 5.12 5.12 5.12 17.92 0 30.72 12.8 30.72 30.72s-12.8 30.72-30.72 30.72c-2.56 0-5.12 2.56-5.12 5.12v56.32c0 23.04 12.8 35.84 35.84 35.84h87.04zM256 691.2c5.12 0 20.48-2.56 25.6-2.56h30.72c38.4 0 69.12 12.8 99.84 20.48 15.36 5.12 38.4 10.24 56.32 7.68 15.36-2.56 30.72-10.24 43.52-15.36 25.6-12.8 48.64-25.6 74.24-40.96 10.24-7.68 28.16-17.92 17.92-33.28-33.28 7.68-71.68 17.92-107.52 28.16-12.8 2.56-25.6 7.68-35.84 7.68-7.68 0-12.8-2.56-20.48-5.12-12.8-5.12-25.6-7.68-38.4-12.8-7.68-2.56-12.8-7.68-10.24-12.8 5.12-7.68 28.16 2.56 33.28 5.12 5.12 2.56 12.8 5.12 17.92 5.12 5.12 2.56 12.8 5.12 17.92 5.12 7.68 0 15.36-7.68 12.8-17.92-2.56-10.24-15.36-15.36-23.04-17.92-17.92-10.24-33.28-17.92-51.2-30.72-17.92-10.24-38.4-25.6-66.56-17.92-15.36 5.12-38.4 17.92-51.2 25.6-5.12 2.56-20.48 25.6-25.6 25.6" fill="#FFFFFF" p-id="6265"></path><path d="M524.8 358.4c-7.68 0-12.8-5.12-12.8-12.8v-76.8c0-7.68 5.12-12.8 12.8-12.8s12.8 5.12 12.8 12.8v76.8c0 7.68-5.12 12.8-12.8 12.8zM524.8 486.4c-7.68 0-12.8-5.12-12.8-12.8v-76.8c0-7.68 5.12-12.8 12.8-12.8s12.8 5.12 12.8 12.8v76.8c0 7.68-5.12 12.8-12.8 12.8zM524.8 614.4c-7.68 0-12.8-5.12-12.8-12.8v-76.8c0-7.68 5.12-12.8 12.8-12.8s12.8 5.12 12.8 12.8v76.8c0 7.68-5.12 12.8-12.8 12.8z" fill="#FD6F67" p-id="6266"></path></svg>