<svg t="1710988282627" class="icon" viewBox="0 0 1024 1024" version="1.1" xmlns="http://www.w3.org/2000/svg" p-id="9917" width="200" height="200"><path d="M986.112 571.136v296.96c0 32.768-26.624 59.392-59.392 59.392H95.232c-32.768 0-59.392-26.624-59.392-59.392V363.264c0-32.768 26.624-59.392 59.392-59.392H926.72c32.768 0 59.392 26.624 59.392 59.392v207.872zM926.72 363.264H95.232v148.48h326.656v59.392H95.232v296.96H926.72v-296.96H600.064v-59.392H926.72v-148.48z m-445.44 89.088h59.392v178.176H481.28V452.352z m267.264-296.96H273.408v148.48h-59.392v-148.48c0-32.768 26.624-59.392 59.392-59.392h475.136c32.768 0 59.392 26.624 59.392 59.392v148.48h-59.392v-148.48z m0 0" p-id="9918"></path></svg>