<svg t="1742462931287" class="icon" viewBox="0 0 1024 1024" version="1.1" xmlns="http://www.w3.org/2000/svg" p-id="5833" width="200" height="200"><path d="M960 783.424a80 80 0 0 1-160 0c0-44.16 80-176 80-176s80 131.84 80 176z" fill="#E0EBFE" p-id="5834"></path><path d="M848.768 473.6L483.456 105.472c-9.088-9.152-23.584-11.296-35.328-6.56-86.72 3.072-192.416 41.536-250.592 126.08-17.184 25.024-21.984 63.104-12.16 97.056 2.496 8.64 6.944 17.28 12.352 25.6l-127.008 128a133.984 133.984 0 0 0 0 188.256l223.232 224.96c25.024 25.216 58.304 39.104 93.76 39.104s68.704-13.888 93.728-39.104l367.36-370.176a32 32 0 0 0 0-45.088zM223.904 243.136c43.136-62.656 116.48-96.736 184.896-108.16l-187.616 189.024c-1.92-3.648-4.032-7.328-5.056-10.816-7.04-24.384-3.84-53.152 7.776-70.048z m212.096 600.64c-25.824 26.048-70.816 26.048-96.64 0l-223.2-224.96a69.76 69.76 0 0 1 0-98.08l126.272-127.264c1.376 0.96 2.752 2.016 4.096 2.912 43.744 28.96 96.416 34.816 132.192 36.704a609.92 609.92 0 0 0 156.192-12c5.952 6.016 14.144 9.76 23.232 9.76a32.864 32.864 0 0 0 0-65.728c-15.168 0-27.392 10.624-31.104 24.736-48.32 9.856-97.504 13.888-146.624 11.264-31.744-1.664-77.984-6.72-115.072-30.72l195.392-196.928 320.224 322.688-344.96 347.616zM852.672 590.816C832.768 623.552 768 734.112 768 783.456c0 61.76 50.24 112 112 112s112-50.24 112-112c0-49.344-64.768-159.904-84.672-192.64-11.52-19.072-43.104-19.072-54.656 0z m27.328 240.64c-26.464 0-48-21.536-48-48 0-15.744 21.76-63.552 48-111.744 26.24 48.192 48 96 48 111.712 0 26.496-21.536 48-48 48z" fill="currentColor" p-id="5835"></path></svg>