<svg t="1742463144540" class="icon" viewBox="0 0 1024 1024" version="1.1" xmlns="http://www.w3.org/2000/svg" p-id="9838" width="200" height="200"><path d="M791.272727 186.181818a46.545455 46.545455 0 1 0 93.090909 0 46.545455 46.545455 0 0 0-93.090909 0zM791.272727 837.818182a46.545455 46.545455 0 1 0 93.090909 0 46.545455 46.545455 0 0 0-93.090909 0zM791.272727 512a46.545455 46.545455 0 1 0 93.090909 0 46.545455 46.545455 0 0 0-93.090909 0z" fill="currentColor" p-id="9839"></path><path d="M69.818182 123.531636v125.300364h884.363636V123.531636h-884.363636zM46.545455 46.545455h930.90909c25.693091 0 46.545455 22.993455 46.545455 51.339636v176.593454C1024 302.917818 1003.147636 325.818182 977.454545 325.818182H46.545455c-25.693091 0-46.545455-22.993455-46.545455-51.339637V97.885091C0 69.538909 20.852364 46.545455 46.545455 46.545455zM69.818182 775.168v125.300364h884.363636v-125.300364h-884.363636zM46.545455 698.181818h930.90909c25.693091 0 46.545455 22.993455 46.545455 51.339637v176.593454c0 28.392727-20.852364 51.339636-46.545455 51.339636H46.545455c-25.693091 0-46.545455-22.993455-46.545455-51.29309v-176.686546C0 721.175273 20.852364 698.181818 46.545455 698.181818zM69.818182 449.349818v125.300364h884.363636V449.349818h-884.363636zM46.545455 372.363636h930.90909c25.693091 0 46.545455 22.993455 46.545455 51.293091v176.686546c0 28.299636-20.852364 51.293091-46.545455 51.293091H46.545455c-25.693091 0-46.545455-22.993455-46.545455-51.293091V423.656727C0 395.357091 20.852364 372.363636 46.545455 372.363636z" fill="currentColor" p-id="9840"></path></svg>