<svg t="1742970480269" class="icon" viewBox="0 0 1024 1024" version="1.1" xmlns="http://www.w3.org/2000/svg" p-id="3520" width="200" height="200"><path d="M518.339 251.532c-85.547 0-155.14 68.48-155.14 152.68 0 84.18 69.593 152.66 155.14 152.66 85.546 0 155.158-68.48 155.158-152.66 0-84.2-69.612-152.68-155.158-152.68z m0 241.639c-49.941 0-90.523-39.935-90.523-89.085 0-49.133 40.6-89.068 90.54-89.068 49.942 0 90.505 39.935 90.505 89.068 0 49.15-40.581 89.085-90.522 89.085zM391.636 833.093c-17.803 0-32.372 14.227-32.372 31.868V992.15c0 17.515 14.444 31.851 32.372 31.851 17.803 0 32.372-14.228 32.372-31.85V864.96c0-17.64-14.57-31.868-32.372-31.868z m258.615 0c-17.803 0-32.372 14.227-32.372 31.868V992.15c0 17.515 14.462 31.851 32.372 31.851 17.928 0 32.372-14.228 32.372-31.85V864.96a32.21 32.21 0 0 0-32.372-31.868z" fill="currentColor" p-id="3521"></path><path d="M806.038 504.632C823.823 199.418 550.154 13.325 538.513 5.528a32.587 32.587 0 0 0-36.917 0.45c-11.084 7.814-271.388 193.458-267.004 497.289 0.7 47.623 7.509 93.666 17.066 136.53-0.342 0.358-0.79 0.574-1.15 0.915-79.223 71.966-124.78 173.877-124.78 279.76 0 17.425 14.407 31.67 32.3 31.67 17.874 0 32.281-14.137 32.281-31.67 0-77.032 28.94-151.71 80.265-209.286a1495.282 1495.282 0 0 0 20.3 61.205c4.491 12.665 16.725 21.27 30.45 21.27h167.338v108.828c0 17.425 14.425 31.671 32.3 31.671s32.281-14.138 32.281-31.671c-36.198-48.863-36.198-85.151 0-108.828 36.217-23.713 91.655-23.713 166.315 0 13.724 0 25.94-8.48 30.45-21.27 5.748-16.294 10.957-32.587 15.898-48.863 43.725 55.312 67.707 122.625 67.707 193.89 0 17.425 14.408 31.67 32.282 31.67 17.893 0 32.3-14.137 32.3-31.67-0.233-101.481-40.132-196.387-112.798-268.209 10.958-48.863 17.875-97.295 20.659-144.577z m-109.762 225.65H553.154v-33.467c0-17.425-14.426-31.69-32.3-31.69s-32.282 14.157-32.282 31.69v33.468H344.3c-21.809-64.025-44.067-144.218-45.216-227.932-3.36-225.884 165.02-383.935 221.644-430.642 58.474 46.168 233.896 203.842 220.854 429.294-4.15 74.211-19.491 151.26-45.324 229.298z" fill="currentColor" p-id="3522"></path></svg>