<svg t="1710990530454" class="icon" viewBox="0 0 1024 1024" version="1.1" xmlns="http://www.w3.org/2000/svg" p-id="1267" width="200" height="200"><path d="M539.88544853 515.45562795L535.98738887 506.2076325 531.24055837 510.08706333Z" fill="#FFFFFF" p-id="1268"></path><path d="M420.22618909 554.88913635L151.07726563 554.88913635c-24.88447773 0-45.13156893 20.24825515-45.13156892 45.13273288l0 269.14543047c0 24.88680675 20.2470912 45.13273287 45.13156892 45.13273287l269.14892346 0c24.88447773 0 45.13040498-20.24592611 45.13040497-45.13273287L465.35659406 600.02187037C465.35659406 575.13739264 445.11066681 554.88913635 420.22618909 554.88913635zM418.93615047 867.87493319L152.36846933 867.87493319 152.36846933 601.31307293l266.56768114 0L418.93615047 867.87493319z" fill="currentColor" p-id="1269"></path><path d="M148.15139271 507.72470898l269.1500874 0c24.88447773 0 45.13040498-20.24592611 45.13040498-45.12924103l0-269.1500874c0-24.88447773-20.24592611-45.12924103-45.13040498-45.12924103L148.15139271 148.31614066c-24.88447773 0-45.12924103 20.24476217-45.12924103 45.12924103l0 269.1500874C103.02331677 487.47878173 123.26691385 507.72470898 148.15139271 507.72470898zM149.44608825 194.73658425l266.56418816 0 0 266.5653521L149.44608825 461.30193635 149.44608825 194.73658425z" fill="currentColor" p-id="1270"></path><path d="M854.58159389 551.96675641L585.43383552 551.96675641c-24.87516387 0-45.10944711 20.24592611-45.10944711 45.13040498l0 269.14775836c0 24.88447773 20.23428323 45.13040498 45.10944711 45.13040498l269.14775837 0c24.89612061 0 45.15136171-20.24592611 45.1513617-45.13040498L899.73295673 597.09716139C899.73295673 572.21268253 879.47771563 551.96675641 854.58159389 551.96675641zM853.31134805 864.95371605L586.74832498 864.95371605 586.74832498 598.38836395l266.56302421 0L853.31134805 864.95371605z" fill="currentColor" p-id="1271"></path><path d="M907.40682525 287.09312512L749.73100259 129.41730247c-8.06390784-8.03829305-18.77891527-12.46610659-30.16921315-12.4661066-11.38796999 0-22.0983205 4.42781355-30.193664 12.49405042L531.77147619 287.0651813c-8.09068658 8.06623573-12.54527886 18.79870805-12.54527886 30.22160668s4.45459342 22.1565349 12.51617224 30.19249892l157.62692096 157.65020672c8.05575794 8.05575794 18.77542229 12.49288647 30.18434901 12.49288647 11.39611989 0 22.1146203-4.42781355 30.20530688-12.49288647L907.43476793 347.45483719C924.04343694 330.79493973 924.03063011 303.71809394 907.40682525 287.09312512zM719.56411847 465.82173013L571.05129813 317.28678798 719.56411847 168.75301091l148.53377707 148.53377707L719.56411847 465.82173013z" fill="currentColor" p-id="1272"></path></svg>