<svg t="1726128019579" class="icon" viewBox="0 0 1024 1024" version="1.1" xmlns="http://www.w3.org/2000/svg" p-id="11053" width="200" height="200"><path d="M768 659.2l89.6-89.6 44.8 44.8-89.6 89.6 89.6 89.6-44.8 44.8-89.6-89.6-89.6 89.6-44.8-44.8 89.6-89.6-89.6-89.6 44.8-44.8 89.6 89.6z" fill="currentColor" p-id="11054"></path><path d="M668.8 96c-41.6 0-115.2 16-188.8 112-73.6-96-147.2-112-188.8-112-144 0-259.2 128-259.2 288 0 73.6 48 176 108.8 233.6 35.2 44.8 105.6 112 182.4 179.2 35.2 28.8 67.2 54.4 92.8 73.6 41.6 32 54.4 35.2 64 35.2 6.4 0 19.2-3.2 64-32 19.2-12.8 41.6-32 67.2-51.2l-38.4-38.4c-41.6 35.2-76.8 60.8-89.6 64-35.2-12.8-220.8-166.4-291.2-256-48-44.8-89.6-134.4-89.6-192 0-128 92.8-233.6 208-233.6 32 0 99.2 16 160 112l16 25.6 16-25.6c64-96 128-112 160-112 115.2 0 208 105.6 208 233.6 0 32-12.8 70.4-28.8 105.6l41.6 41.6c32-51.2 51.2-112 51.2-160-6.4-163.2-124.8-291.2-265.6-291.2z" fill="currentColor" p-id="11055"></path></svg>